# xmcd
#
# Track frame offsets:
#	150
#	12875
#	34932
#	52777
#	66783
#	86680
#	103656
#	128301
#	160485
#	180120
#	197366
#	209193
#	227817
#	245323
#
# Disc length: 3616 seconds
#
# Revision: 0
# Processed by: cddbd v1.5.2PL0 Copyright (c) Steve Scherf et al.
# Submitted via: dBpowerAMP V4.0
#
DISCID=ad0e1e0e
DTITLE=Johnny Logan and Friends - The Irish Collection
DYEAR=2007
DGENRE=Irsk folkemusik
TTITLE0=The Wild Rover
TTITLE1=The Friends Of Athenry
TTITLE2=Dirty Old Town
TTITLE3=Molly Malone
TTITLE4=Old Raglan Road
TTITLE5=The Irish Rover
TTITLE6=The Black Velvet Band
TTITLE7=And The Band Played Waltzing Mathilda
TTITLE8=Raggle Taggle Gybsy
TTITLE9=Follow Me Up To Carlow
TTITLE10=Tim Finnegan's Wake
TTITLE11=Whiskey In The Jar
TTITLE12=Pancil Hill
TTITLE13=The Town I Loved So Well
EXTD=Johnny Logan and Friends - The Irish Collection
EXTT0=
EXTT1=
EXTT2=
EXTT3=
EXTT4=
EXTT5=
EXTT6=
EXTT7=
EXTT8=
EXTT9=
EXTT10=
EXTT11=
EXTT12=
EXTT13=
PLAYORDER=
